<svg xmlns="http://www.w3.org/2000/svg" width="16" height="16" viewBox="0 0 16 16" fill="none"> <path d="M8 15.5001C12.1421 15.5001 15.5 12.1422 15.5 8.00006C15.5 3.85793 12.1421 0.500061 8 0.500061C3.85786 0.500061 0.5 3.85793 0.5 8.00006C0.5 12.1422 3.85786 15.5001 8 15.5001Z" stroke="#FFF" stroke-linecap="round" stroke-linejoin="round"/> <path d="M8.00191 7.77333C9.20219 7.77333 10.1752 6.92866 10.1752 5.8867C10.1752 4.84474 9.20219 4.00006 8.00191 4.00006C6.80163 4.00006 5.82861 4.84474 5.82861 5.8867C5.82861 6.92866 6.80163 7.77333 8.00191 7.77333Z" stroke="#FFF" stroke-linecap="round" stroke-linejoin="round"/> <path d="M8.00088 11.9999C9.37642 11.9999 10.4915 11.0538 10.4915 9.88665C10.4915 8.7195 9.37642 7.77335 8.00088 7.77335C6.62535 7.77335 5.51025 8.7195 5.51025 9.88665C5.51025 11.0538 6.62535 11.9999 8.00088 11.9999Z" stroke="#FFF" stroke-linecap="round" stroke-linejoin="round"/> </svg>
