<svg xmlns="http://www.w3.org/2000/svg" width="16" height="16" viewBox="0 0 16 16" fill="none">
    <g clip-path="url(#clip0_9649_19765)">
        <path d="M11.249 11C11.103 11 10.953 10.957 10.823 10.867L7.573 8.61703C7.371 8.47703 7.25 8.24603 7.25 8.00003V3.75003C7.25 3.33603 7.586 3.00003 8 3.00003C8.414 3.00003 8.75 3.33603 8.75 3.75003V7.60703L11.677 9.63303C12.018 9.86903 12.103 10.336 11.866 10.676C11.72 10.886 11.487 10.999 11.249 10.999V11Z" fill="white"/>
        <path d="M8 16C7.586 16 7.25 15.664 7.25 15.25C7.25 14.836 7.586 14.5 8 14.5C11.584 14.5 14.5 11.584 14.5 8.00003C14.5 4.41603 11.584 1.50003 8 1.50003C7.586 1.50003 7.25 1.16403 7.25 0.750031C7.25 0.336031 7.586 3.05176e-05 8 3.05176e-05C12.411 3.05176e-05 16 3.58903 16 8.00003C16 12.411 12.411 16 8 16Z" fill="white"/>
        <path d="M2.87305 13.877C3.28726 13.877 3.62305 13.5412 3.62305 13.127C3.62305 12.7128 3.28726 12.377 2.87305 12.377C2.45883 12.377 2.12305 12.7128 2.12305 13.127C2.12305 13.5412 2.45883 13.877 2.87305 13.877Z" fill="white"/>
        <path d="M0.75 8.75003C1.16421 8.75003 1.5 8.41424 1.5 8.00003C1.5 7.58582 1.16421 7.25003 0.75 7.25003C0.335786 7.25003 0 7.58582 0 8.00003C0 8.41424 0.335786 8.75003 0.75 8.75003Z" fill="white"/>
        <path d="M2.87305 3.62308C3.28726 3.62308 3.62305 3.28729 3.62305 2.87308C3.62305 2.45886 3.28726 2.12308 2.87305 2.12308C2.45883 2.12308 2.12305 2.45886 2.12305 2.87308C2.12305 3.28729 2.45883 3.62308 2.87305 3.62308Z" fill="white"/>
        <path d="M5.22607 15.4483C5.64029 15.4483 5.97607 15.1125 5.97607 14.6983C5.97607 14.2841 5.64029 13.9483 5.22607 13.9483C4.81186 13.9483 4.47607 14.2841 4.47607 14.6983C4.47607 15.1125 4.81186 15.4483 5.22607 15.4483Z" fill="white"/>
        <path d="M1.302 11.524C1.71622 11.524 2.052 11.1882 2.052 10.774C2.052 10.3597 1.71622 10.024 1.302 10.024C0.887788 10.024 0.552002 10.3597 0.552002 10.774C0.552002 11.1882 0.887788 11.524 1.302 11.524Z" fill="white"/>
        <path d="M1.302 5.9761C1.71622 5.9761 2.052 5.64032 2.052 5.2261C2.052 4.81189 1.71622 4.4761 1.302 4.4761C0.887788 4.4761 0.552002 4.81189 0.552002 5.2261C0.552002 5.64032 0.887788 5.9761 1.302 5.9761Z" fill="white"/>
        <path d="M5.22607 2.05179C5.64029 2.05179 5.97607 1.716 5.97607 1.30179C5.97607 0.887575 5.64029 0.551788 5.22607 0.551788C4.81186 0.551788 4.47607 0.887575 4.47607 1.30179C4.47607 1.716 4.81186 2.05179 5.22607 2.05179Z" fill="white"/>
    </g>
    <defs>
        <clipPath id="clip0_9649_19765">
            <rect width="16" height="16" fill="white"/>
        </clipPath>
    </defs>
</svg>
